REM DIRINDEX 1\2\4\18,1\2\4\19,1\2\5\20,1\2\5\21,1\2\6\22,1\2\7\23,1\2\8\24,1\2\8\25,1\2\9\26,1\2\10\27,1\3\11\28,1\3\11\29,1\3\11\30,1\3\11\31,1\3\12\32,1\3\12\33,1\3\12\34,1\3\12\35,1\3\13\36,1\3\13\37,1\3\14\38,1\3\14\39,1\3\15\40,1\3\15\41,1\3\15\42,1\3\16\43,1\3\16\44,1\3\17\45,1\3\17\46
REM DIRNAME cjc023,folder01,folder02,folder03,folder04,folder05,folder06,folder07,folder08,folder09,folder10,folder11,folder12,folder13,folder14,folder15,folder16,folder17,folder18,folder19,folder20,folder21,folder22,folder23,folder24,folder25,folder26,folder27,folder28,folder29,folder30,folder31,folder32,folder33,folder34,folder35,folder36,folder37,folder38,folder39,folder40,folder41,folder42,folder43,folder44,folder45
TITLE ""
FILE "09.mp3" MP3
  TRACK 01 AUDIO
    TITLE "0:"
    INDEX 01 00:00:00
  TRACK 02 AUDIO
    TITLE "28:cjc023_5660"
    INDEX 01 00:00:13
  TRACK 03 AUDIO
    TITLE "0:"
    INDEX 01 00:01:38
  TRACK 04 AUDIO
    TITLE "29:cjc023_5661"
    INDEX 01 00:02:08
  TRACK 05 AUDIO
    TITLE "0:"
    INDEX 01 00:03:64
  TRACK 06 AUDIO
    TITLE "30:cjc023_5662"
    INDEX 01 00:04:13
  TRACK 07 AUDIO
    TITLE "0:"
    INDEX 01 00:06:02
  TRACK 08 AUDIO
    TITLE "31:cjc023_5663"
    INDEX 01 00:06:26
  TRACK 09 AUDIO
    TITLE "0:"
    INDEX 01 00:08:13
  TRACK 10 AUDIO
    TITLE "28:cjc023_5664"
    INDEX 01 00:09:12
  TRACK 11 AUDIO
    TITLE "0:"
    INDEX 01 00:10:31
  TRACK 12 AUDIO
    TITLE "29:cjc023_5665"
    INDEX 01 00:11:03
  TRACK 13 AUDIO
    TITLE "0:"
    INDEX 01 00:12:46
  TRACK 14 AUDIO
    TITLE "30:cjc023_5666"
    INDEX 01 00:12:67
  TRACK 15 AUDIO
    TITLE "0:"
    INDEX 01 00:14:49
  TRACK 16 AUDIO
    TITLE "31:cjc023_5667"
    INDEX 01 00:14:72
  TRACK 17 AUDIO
    TITLE "0:"
    INDEX 01 00:16:55
  TRACK 18 AUDIO
    TITLE "28:cjc023_5668"
    INDEX 01 00:17:53
  TRACK 19 AUDIO
    TITLE "0:"
    INDEX 01 00:18:70
  TRACK 20 AUDIO
    TITLE "29:cjc023_5669"
    INDEX 01 00:19:40
  TRACK 21 AUDIO
    TITLE "0:"
    INDEX 01 00:21:74
  TRACK 22 AUDIO
    TITLE "30:cjc023_5670"
    INDEX 01 00:22:27
  TRACK 23 AUDIO
    TITLE "0:"
    INDEX 01 00:24:41
  TRACK 24 AUDIO
    TITLE "31:cjc023_5671"
    INDEX 01 00:24:67
  TRACK 25 AUDIO
    TITLE "0:"
    INDEX 01 00:27:04
  TRACK 26 AUDIO
    TITLE "28:cjc023_5672"
    INDEX 01 00:28:06
  TRACK 27 AUDIO
    TITLE "0:"
    INDEX 01 00:29:29
  TRACK 28 AUDIO
    TITLE "29:cjc023_5673"
    INDEX 01 00:30:03
  TRACK 29 AUDIO
    TITLE "0:"
    INDEX 01 00:32:11
  TRACK 30 AUDIO
    TITLE "30:cjc023_5674"
    INDEX 01 00:32:33
  TRACK 31 AUDIO
    TITLE "0:"
    INDEX 01 00:34:67
  TRACK 32 AUDIO
    TITLE "31:cjc023_5675"
    INDEX 01 00:35:14
  TRACK 33 AUDIO
    TITLE "0:"
    INDEX 01 00:37:46
  TRACK 34 AUDIO
    TITLE "28:cjc023_5676"
    INDEX 01 00:38:45
  TRACK 35 AUDIO
    TITLE "0:"
    INDEX 01 00:39:45
  TRACK 36 AUDIO
    TITLE "29:cjc023_5677"
    INDEX 01 00:40:21
  TRACK 37 AUDIO
    TITLE "0:"
    INDEX 01 00:42:49
  TRACK 38 AUDIO
    TITLE "30:cjc023_5678"
    INDEX 01 00:43:03
  TRACK 39 AUDIO
    TITLE "0:"
    INDEX 01 00:45:16
  TRACK 40 AUDIO
    TITLE "31:cjc023_5679"
    INDEX 01 00:45:39
  TRACK 41 AUDIO
    TITLE "0:"
    INDEX 01 00:47:52
  TRACK 42 AUDIO
    TITLE "28:cjc023_5680"
    INDEX 01 00:48:59
  TRACK 43 AUDIO
    TITLE "0:"
    INDEX 01 00:49:69
  TRACK 44 AUDIO
    TITLE "29:cjc023_5681"
    INDEX 01 00:50:44
  TRACK 45 AUDIO
    TITLE "0:"
    INDEX 01 00:54:50
  TRACK 46 AUDIO
    TITLE "30:cjc023_5682"
    INDEX 01 00:55:04
  TRACK 47 AUDIO
    TITLE "0:"
    INDEX 01 00:58:38
  TRACK 48 AUDIO
    TITLE "31:cjc023_5683"
    INDEX 01 00:58:62
  TRACK 49 AUDIO
    TITLE "0:"
    INDEX 01 01:02:22
  TRACK 50 AUDIO
    TITLE "28:cjc023_5684"
    INDEX 01 01:03:18
  TRACK 51 AUDIO
    TITLE "0:"
    INDEX 01 01:04:37
  TRACK 52 AUDIO
    TITLE "29:cjc023_5685"
    INDEX 01 01:05:11
  TRACK 53 AUDIO
    TITLE "0:"
    INDEX 01 01:08:58
  TRACK 54 AUDIO
    TITLE "30:cjc023_5686"
    INDEX 01 01:09:12
  TRACK 55 AUDIO
    TITLE "0:"
    INDEX 01 01:12:32
  TRACK 56 AUDIO
    TITLE "31:cjc023_5687"
    INDEX 01 01:12:52
  TRACK 57 AUDIO
    TITLE "0:"
    INDEX 01 01:15:70
  TRACK 58 AUDIO
    TITLE "28:cjc023_5688"
    INDEX 01 01:16:67
  TRACK 59 AUDIO
    TITLE "0:"
    INDEX 01 01:18:17
  TRACK 60 AUDIO
    TITLE "29:cjc023_5689"
    INDEX 01 01:18:66
  TRACK 61 AUDIO
    TITLE "0:"
    INDEX 01 01:21:70
  TRACK 62 AUDIO
    TITLE "30:cjc023_5690"
    INDEX 01 01:22:17
  TRACK 63 AUDIO
    TITLE "0:"
    INDEX 01 01:25:00
  TRACK 64 AUDIO
    TITLE "31:cjc023_5691"
    INDEX 01 01:25:25
  TRACK 65 AUDIO
    TITLE "0:"
    INDEX 01 01:28:08
  TRACK 66 AUDIO
    TITLE "28:cjc023_5692"
    INDEX 01 01:29:09
  TRACK 67 AUDIO
    TITLE "0:"
    INDEX 01 01:30:17
  TRACK 68 AUDIO
    TITLE "29:cjc023_5693"
    INDEX 01 01:30:64
  TRACK 69 AUDIO
    TITLE "0:"
    INDEX 01 01:34:14
  TRACK 70 AUDIO
    TITLE "30:cjc023_5694"
    INDEX 01 01:34:36
  TRACK 71 AUDIO
    TITLE "0:"
    INDEX 01 01:36:70
  TRACK 72 AUDIO
    TITLE "31:cjc023_5695"
    INDEX 01 01:37:15
  TRACK 73 AUDIO
    TITLE "0:"
    INDEX 01 01:39:49
  TRACK 74 AUDIO
    TITLE "28:cjc023_5696"
    INDEX 01 01:40:46
  TRACK 75 AUDIO
    TITLE "0:"
    INDEX 01 01:42:04
  TRACK 76 AUDIO
    TITLE "29:cjc023_5697"
    INDEX 01 01:42:51
  TRACK 77 AUDIO
    TITLE "0:"
    INDEX 01 01:44:58
  TRACK 78 AUDIO
    TITLE "30:cjc023_5698"
    INDEX 01 01:45:08
  TRACK 79 AUDIO
    TITLE "0:"
    INDEX 01 01:47:35
  TRACK 80 AUDIO
    TITLE "31:cjc023_5699"
    INDEX 01 01:47:60
  TRACK 81 AUDIO
    TITLE "0:"
    INDEX 01 01:50:13
  TRACK 82 AUDIO
    TITLE "28:cjc023_5700"
    INDEX 01 01:51:13
  TRACK 83 AUDIO
    TITLE "0:"
    INDEX 01 01:52:28
  TRACK 84 AUDIO
    TITLE "29:cjc023_5701"
    INDEX 01 01:53:02
  TRACK 85 AUDIO
    TITLE "0:"
    INDEX 01 01:55:22
  TRACK 86 AUDIO
    TITLE "30:cjc023_5702"
    INDEX 01 01:55:46
  TRACK 87 AUDIO
    TITLE "0:"
    INDEX 01 01:57:64
  TRACK 88 AUDIO
    TITLE "31:cjc023_5703"
    INDEX 01 01:58:11
  TRACK 89 AUDIO
    TITLE "0:"
    INDEX 01 02:00:29
  TRACK 90 AUDIO
    TITLE "28:cjc023_5704"
    INDEX 01 02:01:25
  TRACK 91 AUDIO
    TITLE "0:"
    INDEX 01 02:02:34
  TRACK 92 AUDIO
    TITLE "29:cjc023_5705"
    INDEX 01 02:03:10
  TRACK 93 AUDIO
    TITLE "0:"
    INDEX 01 02:04:59
  TRACK 94 AUDIO
    TITLE "30:cjc023_5706"
    INDEX 01 02:05:11
  TRACK 95 AUDIO
    TITLE "0:"
    INDEX 01 02:07:16
  TRACK 96 AUDIO
    TITLE "31:cjc023_5707"
    INDEX 01 02:07:37
  TRACK 97 AUDIO
    TITLE "0:"
    INDEX 01 02:09:44
  TRACK 98 AUDIO
    TITLE "28:cjc023_5708"
    INDEX 01 02:10:40
  TRACK 99 AUDIO
    TITLE "0:"
    INDEX 01 02:11:53
  TRACK 100 AUDIO
    TITLE "29:cjc023_5709"
    INDEX 01 02:12:25
  TRACK 101 AUDIO
    TITLE "0:"
    INDEX 01 02:13:73
  TRACK 102 AUDIO
    TITLE "30:cjc023_5710"
    INDEX 01 02:14:30
  TRACK 103 AUDIO
    TITLE "0:"
    INDEX 01 02:16:01
  TRACK 104 AUDIO
    TITLE "31:cjc023_5711"
    INDEX 01 02:16:28
  TRACK 105 AUDIO
    TITLE "0:"
    INDEX 01 02:18:04
  TRACK 106 AUDIO
    TITLE "28:cjc023_5712"
    INDEX 01 02:18:74
  TRACK 107 AUDIO
    TITLE "0:"
    INDEX 01 02:20:28
  TRACK 108 AUDIO
    TITLE "29:cjc023_5713"
    INDEX 01 02:21:00
  TRACK 109 AUDIO
    TITLE "0:"
    INDEX 01 02:22:58
  TRACK 110 AUDIO
    TITLE "30:cjc023_5714"
    INDEX 01 02:23:13
  TRACK 111 AUDIO
    TITLE "0:"
    INDEX 01 02:25:08
  TRACK 112 AUDIO
    TITLE "31:cjc023_5715"
    INDEX 01 02:25:27
  TRACK 113 AUDIO
    TITLE "0:"
    INDEX 01 02:27:22
  TRACK 114 AUDIO
    TITLE "28:cjc023_5716"
    INDEX 01 02:28:18
  TRACK 115 AUDIO
    TITLE "0:"
    INDEX 01 02:29:37
  TRACK 116 AUDIO
    TITLE "29:cjc023_5717"
    INDEX 01 02:30:15
  TRACK 117 AUDIO
    TITLE "0:"
    INDEX 01 02:32:25
  TRACK 118 AUDIO
    TITLE "30:cjc023_5718"
    INDEX 01 02:32:55
  TRACK 119 AUDIO
    TITLE "0:"
    INDEX 01 02:34:52
  TRACK 120 AUDIO
    TITLE "31:cjc023_5719"
    INDEX 01 02:35:02
  TRACK 121 AUDIO
    TITLE "0:"
    INDEX 01 02:36:74
  TRACK 122 AUDIO
    TITLE "28:cjc023_5720"
    INDEX 01 02:38:01
  TRACK 123 AUDIO
    TITLE "0:"
    INDEX 01 02:39:14
  TRACK 124 AUDIO
    TITLE "29:cjc023_5721"
    INDEX 01 02:39:61
  TRACK 125 AUDIO
    TITLE "0:"
    INDEX 01 02:42:28
  TRACK 126 AUDIO
    TITLE "30:cjc023_5722"
    INDEX 01 02:42:53
  TRACK 127 AUDIO
    TITLE "0:"
    INDEX 01 02:45:14
  TRACK 128 AUDIO
    TITLE "31:cjc023_5723"
    INDEX 01 02:45:38
  TRACK 129 AUDIO
    TITLE "0:"
    INDEX 01 02:47:74
  TRACK 130 AUDIO
    TITLE "28:cjc023_5724"
    INDEX 01 02:48:73
  TRACK 131 AUDIO
    TITLE "0:"
    INDEX 01 02:50:18
  TRACK 132 AUDIO
    TITLE "29:cjc023_5725"
    INDEX 01 02:50:68
  TRACK 133 AUDIO
    TITLE "0:"
    INDEX 01 02:53:04
  TRACK 134 AUDIO
    TITLE "30:cjc023_5726"
    INDEX 01 02:53:28
  TRACK 135 AUDIO
    TITLE "0:"
    INDEX 01 02:55:28
  TRACK 136 AUDIO
    TITLE "31:cjc023_5727"
    INDEX 01 02:55:52
  TRACK 137 AUDIO
    TITLE "0:"
    INDEX 01 02:57:53
  TRACK 138 AUDIO
    TITLE "28:cjc023_5728"
    INDEX 01 02:58:52
  TRACK 139 AUDIO
    TITLE "0:"
    INDEX 01 03:00:04
  TRACK 140 AUDIO
    TITLE "29:cjc023_5729"
    INDEX 01 03:00:49
  TRACK 141 AUDIO
    TITLE "0:"
    INDEX 01 03:04:63
  TRACK 142 AUDIO
    TITLE "30:cjc023_5730"
    INDEX 01 03:05:09
  TRACK 143 AUDIO
    TITLE "0:"
    INDEX 01 03:09:23
  TRACK 144 AUDIO
    TITLE "31:cjc023_5731"
    INDEX 01 03:09:42
  TRACK 145 AUDIO
    TITLE "0:"
    INDEX 01 03:13:56
  TRACK 146 AUDIO
    TITLE "28:cjc023_5732"
    INDEX 01 03:14:51
  TRACK 147 AUDIO
    TITLE "0:"
    INDEX 01 03:16:07
  TRACK 148 AUDIO
    TITLE "29:cjc023_5733"
    INDEX 01 03:16:52
  TRACK 149 AUDIO
    TITLE "0:"
    INDEX 01 03:20:62
  TRACK 150 AUDIO
    TITLE "30:cjc023_5734"
    INDEX 01 03:21:10
  TRACK 151 AUDIO
    TITLE "0:"
    INDEX 01 03:24:40
  TRACK 152 AUDIO
    TITLE "31:cjc023_5735"
    INDEX 01 03:24:60
  TRACK 153 AUDIO
    TITLE "0:"
    INDEX 01 03:28:14
  TRACK 154 AUDIO
    TITLE "28:cjc023_5736"
    INDEX 01 03:29:10
  TRACK 155 AUDIO
    TITLE "0:"
    INDEX 01 03:30:35
  TRACK 156 AUDIO
    TITLE "29:cjc023_5737"
    INDEX 01 03:31:09
  TRACK 157 AUDIO
    TITLE "0:"
    INDEX 01 03:34:44
  TRACK 158 AUDIO
    TITLE "30:cjc023_5738"
    INDEX 01 03:34:74
  TRACK 159 AUDIO
    TITLE "0:"
    INDEX 01 03:38:22
  TRACK 160 AUDIO
    TITLE "31:cjc023_5739"
    INDEX 01 03:38:42
  TRACK 161 AUDIO
    TITLE "0:"
    INDEX 01 03:41:68
  TRACK 162 AUDIO
    TITLE "28:cjc023_5740"
    INDEX 01 03:42:59
  TRACK 163 AUDIO
    TITLE "0:"
    INDEX 01 03:44:07
  TRACK 164 AUDIO
    TITLE "29:cjc023_5741"
    INDEX 01 03:44:50
  TRACK 165 AUDIO
    TITLE "0:"
    INDEX 01 03:46:73
  TRACK 166 AUDIO
    TITLE "30:cjc023_5742"
    INDEX 01 03:47:19
  TRACK 167 AUDIO
    TITLE "0:"
    INDEX 01 03:50:02
  TRACK 168 AUDIO
    TITLE "31:cjc023_5743"
    INDEX 01 03:50:24
  TRACK 169 AUDIO
    TITLE "0:"
    INDEX 01 03:53:04
  TRACK 170 AUDIO
    TITLE "28:cjc023_5744"
    INDEX 01 03:54:00
  TRACK 171 AUDIO
    TITLE "0:"
    INDEX 01 03:55:19
  TRACK 172 AUDIO
    TITLE "29:cjc023_5745"
    INDEX 01 03:55:66
  TRACK 173 AUDIO
    TITLE "0:"
    INDEX 01 03:58:41
  TRACK 174 AUDIO
    TITLE "30:cjc023_5746"
    INDEX 01 03:58:60
  TRACK 175 AUDIO
    TITLE "0:"
    INDEX 01 04:01:20
  TRACK 176 AUDIO
    TITLE "31:cjc023_5747"
    INDEX 01 04:01:43
  TRACK 177 AUDIO
    TITLE "0:"
    INDEX 01 04:03:73
  TRACK 178 AUDIO
    TITLE "28:cjc023_5748"
    INDEX 01 04:05:00
  TRACK 179 AUDIO
    TITLE "0:"
    INDEX 01 04:06:11
  TRACK 180 AUDIO
    TITLE "29:cjc023_5749"
    INDEX 01 04:06:58
  TRACK 181 AUDIO
    TITLE "0:"
    INDEX 01 04:09:13
  TRACK 182 AUDIO
    TITLE "30:cjc023_5750"
    INDEX 01 04:09:43
  TRACK 183 AUDIO
    TITLE "0:"
    INDEX 01 04:11:71
  TRACK 184 AUDIO
    TITLE "31:cjc023_5751"
    INDEX 01 04:12:17
  TRACK 185 AUDIO
    TITLE "0:"
    INDEX 01 04:14:44
  TRACK 186 AUDIO
    TITLE "28:cjc023_5752"
    INDEX 01 04:15:43
  TRACK 187 AUDIO
    TITLE "0:"
    INDEX 01 04:16:74
  TRACK 188 AUDIO
    TITLE "29:cjc023_5753"
    INDEX 01 04:17:42
  TRACK 189 AUDIO
    TITLE "0:"
    INDEX 01 04:19:62
  TRACK 190 AUDIO
    TITLE "30:cjc023_5754"
    INDEX 01 04:20:11
  TRACK 191 AUDIO
    TITLE "0:"
    INDEX 01 04:22:49
  TRACK 192 AUDIO
    TITLE "31:cjc023_5755"
    INDEX 01 04:22:73
  TRACK 193 AUDIO
    TITLE "0:"
    INDEX 01 04:25:36
  TRACK 194 AUDIO
    TITLE "28:cjc023_5756"
    INDEX 01 04:26:35
  TRACK 195 AUDIO
    TITLE "0:"
    INDEX 01 04:27:50
  TRACK 196 AUDIO
    TITLE "29:cjc023_5757"
    INDEX 01 04:28:24
  TRACK 197 AUDIO
    TITLE "0:"
    INDEX 01 04:30:13
  TRACK 198 AUDIO
    TITLE "30:cjc023_5758"
    INDEX 01 04:30:37
  TRACK 199 AUDIO
    TITLE "0:"
    INDEX 01 04:32:22
  TRACK 200 AUDIO
    TITLE "31:cjc023_5759"
    INDEX 01 04:32:48
  TRACK 201 AUDIO
    TITLE "0:"
    INDEX 01 04:34:35
  TRACK 202 AUDIO
    TITLE "28:cjc023_5760"
    INDEX 01 04:35:32
  TRACK 203 AUDIO
    TITLE "0:"
    INDEX 01 04:36:71
  TRACK 204 AUDIO
    TITLE "29:cjc023_5761"
    INDEX 01 04:37:43
  TRACK 205 AUDIO
    TITLE "0:"
    INDEX 01 04:40:08
  TRACK 206 AUDIO
    TITLE "30:cjc023_5762"
    INDEX 01 04:40:39
  TRACK 207 AUDIO
    TITLE "0:"
    INDEX 01 04:43:65
  TRACK 208 AUDIO
    TITLE "31:cjc023_5763"
    INDEX 01 04:44:12
  TRACK 209 AUDIO
    TITLE "0:"
    INDEX 01 04:47:37
  TRACK 210 AUDIO
    TITLE "28:cjc023_5764"
    INDEX 01 04:48:33
  TRACK 211 AUDIO
    TITLE "0:"
    INDEX 01 04:49:34
  TRACK 212 AUDIO
    TITLE "29:cjc023_5765"
    INDEX 01 04:50:06
  TRACK 213 AUDIO
    TITLE "0:"
    INDEX 01 04:53:32
  TRACK 214 AUDIO
    TITLE "30:cjc023_5766"
    INDEX 01 04:53:56
  TRACK 215 AUDIO
    TITLE "0:"
    INDEX 01 04:56:34
  TRACK 216 AUDIO
    TITLE "31:cjc023_5767"
    INDEX 01 04:56:58
  TRACK 217 AUDIO
    TITLE "0:"
    INDEX 01 04:59:39
  TRACK 218 AUDIO
    TITLE "28:cjc023_5768"
    INDEX 01 05:00:36
  TRACK 219 AUDIO
    TITLE "0:"
    INDEX 01 05:01:59
  TRACK 220 AUDIO
    TITLE "29:cjc023_5769"
    INDEX 01 05:02:37
  TRACK 221 AUDIO
    TITLE "0:"
    INDEX 01 05:04:42
  TRACK 222 AUDIO
    TITLE "30:cjc023_5770"
    INDEX 01 05:04:63
  TRACK 223 AUDIO
    TITLE "0:"
    INDEX 01 05:07:40
  TRACK 224 AUDIO
    TITLE "31:cjc023_5771"
    INDEX 01 05:07:65
  TRACK 225 AUDIO
    TITLE "0:"
    INDEX 01 05:10:46
  TRACK 226 AUDIO
    TITLE "28:cjc023_5772"
    INDEX 01 05:11:44
  TRACK 227 AUDIO
    TITLE "0:"
    INDEX 01 05:13:13
  TRACK 228 AUDIO
    TITLE "29:cjc023_5773"
    INDEX 01 05:13:64
  TRACK 229 AUDIO
    TITLE "0:"
    INDEX 01 05:15:67
  TRACK 230 AUDIO
    TITLE "30:cjc023_5774"
    INDEX 01 05:16:15
  TRACK 231 AUDIO
    TITLE "0:"
    INDEX 01 05:18:38
  TRACK 232 AUDIO
    TITLE "31:cjc023_5775"
    INDEX 01 05:18:59
  TRACK 233 AUDIO
    TITLE "0:"
    INDEX 01 05:21:07
  TRACK 234 AUDIO
    TITLE "28:cjc023_5776"
    INDEX 01 05:22:06
  TRACK 235 AUDIO
    TITLE "0:"
    INDEX 01 05:23:43
  TRACK 236 AUDIO
    TITLE "29:cjc023_5777"
    INDEX 01 05:24:13
  TRACK 237 AUDIO
    TITLE "0:"
    INDEX 01 05:26:41
  TRACK 238 AUDIO
    TITLE "30:cjc023_5778"
    INDEX 01 05:26:63
  TRACK 239 AUDIO
    TITLE "0:"
    INDEX 01 05:29:22
  TRACK 240 AUDIO
    TITLE "31:cjc023_5779"
    INDEX 01 05:29:45
  TRACK 241 AUDIO
    TITLE "0:"
    INDEX 01 05:32:05
  TRACK 242 AUDIO
    TITLE "28:cjc023_5780"
    INDEX 01 05:33:02
  TRACK 243 AUDIO
    TITLE "0:"
    INDEX 01 05:34:17
  TRACK 244 AUDIO
    TITLE "29:cjc023_5781"
    INDEX 01 05:34:62
  TRACK 245 AUDIO
    TITLE "0:"
    INDEX 01 05:36:55
  TRACK 246 AUDIO
    TITLE "30:cjc023_5782"
    INDEX 01 05:37:04
  TRACK 247 AUDIO
    TITLE "0:"
    INDEX 01 05:40:04
  TRACK 248 AUDIO
    TITLE "31:cjc023_5783"
    INDEX 01 05:40:28
  TRACK 249 AUDIO
    TITLE "0:"
    INDEX 01 05:43:28
  TRACK 250 AUDIO
    TITLE "28:cjc023_5784"
    INDEX 01 05:44:33
  TRACK 251 AUDIO
    TITLE "0:"
    INDEX 01 05:45:46
  TRACK 252 AUDIO
    TITLE "29:cjc023_5785"
    INDEX 01 05:46:18
  TRACK 253 AUDIO
    TITLE "0:"
    INDEX 01 05:48:04
  TRACK 254 AUDIO
    TITLE "30:cjc023_5786"
    INDEX 01 05:48:31
  TRACK 255 AUDIO
    TITLE "0:"
    INDEX 01 05:50:16
  TRACK 256 AUDIO
    TITLE "31:cjc023_5787"
    INDEX 01 05:50:38
  TRACK 257 AUDIO
    TITLE "0:"
    INDEX 01 05:52:25
  TRACK 258 AUDIO
    TITLE "28:cjc023_5788"
    INDEX 01 05:53:19
  TRACK 259 AUDIO
    TITLE "0:"
    INDEX 01 05:54:43
  TRACK 260 AUDIO
    TITLE "29:cjc023_5789"
    INDEX 01 05:55:15
  TRACK 261 AUDIO
    TITLE "0:"
    INDEX 01 05:56:74
  TRACK 262 AUDIO
    TITLE "30:cjc023_5790"
    INDEX 01 05:57:28
  TRACK 263 AUDIO
    TITLE "0:"
    INDEX 01 05:59:07
  TRACK 264 AUDIO
    TITLE "31:cjc023_5791"
    INDEX 01 05:59:31
  TRACK 265 AUDIO
    TITLE "0:"
    INDEX 01 06:01:10
  TRACK 266 AUDIO
    TITLE "28:cjc023_5792"
    INDEX 01 06:02:08
  TRACK 267 AUDIO
    TITLE "0:"
    INDEX 01 06:03:29
  TRACK 268 AUDIO
    TITLE "29:cjc023_5793"
    INDEX 01 06:04:01
  TRACK 269 AUDIO
    TITLE "0:"
    INDEX 01 06:06:37
  TRACK 270 AUDIO
    TITLE "30:cjc023_5794"
    INDEX 01 06:06:60
  TRACK 271 AUDIO
    TITLE "0:"
    INDEX 01 06:08:49
  TRACK 272 AUDIO
    TITLE "31:cjc023_5795"
    INDEX 01 06:09:00
  TRACK 273 AUDIO
    TITLE "0:"
    INDEX 01 06:10:64
  TRACK 274 AUDIO
    TITLE "28:cjc023_5796"
    INDEX 01 06:11:63
  TRACK 275 AUDIO
    TITLE "0:"
    INDEX 01 06:12:73
  TRACK 276 AUDIO
    TITLE "29:cjc023_5797"
    INDEX 01 06:13:45
  TRACK 277 AUDIO
    TITLE "0:"
    INDEX 01 06:15:42
  TRACK 278 AUDIO
    TITLE "30:cjc023_5798"
    INDEX 01 06:15:63
  TRACK 279 AUDIO
    TITLE "0:"
    INDEX 01 06:18:01
  TRACK 280 AUDIO
    TITLE "31:cjc023_5799"
    INDEX 01 06:18:24
  TRACK 281 AUDIO
    TITLE "0:"
    INDEX 01 06:20:37
  TRACK 282 AUDIO
    TITLE "28:cjc023_5800"
    INDEX 01 06:21:33
  TRACK 283 AUDIO
    TITLE "0:"
    INDEX 01 06:22:44
  TRACK 284 AUDIO
    TITLE "29:cjc023_5801"
    INDEX 01 06:23:16
  TRACK 285 AUDIO
    TITLE "0:"
    INDEX 01 06:25:17
  TRACK 286 AUDIO
    TITLE "30:cjc023_5802"
    INDEX 01 06:25:46
  TRACK 287 AUDIO
    TITLE "0:"
    INDEX 01 06:27:31
  TRACK 288 AUDIO
    TITLE "31:cjc023_5803"
    INDEX 01 06:27:53
  TRACK 289 AUDIO
    TITLE "0:"
    INDEX 01 06:29:40
  TRACK 290 AUDIO
    TITLE "28:cjc023_5804"
    INDEX 01 06:30:35
  TRACK 291 AUDIO
    TITLE "0:"
    INDEX 01 06:31:31
  TRACK 292 AUDIO
    TITLE "29:cjc023_5805"
    INDEX 01 06:32:07
  TRACK 293 AUDIO
    TITLE "0:"
    INDEX 01 06:35:07
  TRACK 294 AUDIO
    TITLE "30:cjc023_5806"
    INDEX 01 06:35:31
  TRACK 295 AUDIO
    TITLE "0:"
    INDEX 01 06:38:25
  TRACK 296 AUDIO
    TITLE "31:cjc023_5807"
    INDEX 01 06:38:45
  TRACK 297 AUDIO
    TITLE "0:"
    INDEX 01 06:41:37
  TRACK 298 AUDIO
    TITLE "28:cjc023_5808"
    INDEX 01 06:42:35
  TRACK 299 AUDIO
    TITLE "0:"
    INDEX 01 06:43:54
  TRACK 300 AUDIO
    TITLE "29:cjc023_5809"
    INDEX 01 06:44:28
  TRACK 301 AUDIO
    TITLE "0:"
    INDEX 01 06:46:27
  TRACK 302 AUDIO
    TITLE "30:cjc023_5810"
    INDEX 01 06:46:48
  TRACK 303 AUDIO
    TITLE "0:"
    INDEX 01 06:49:01
  TRACK 304 AUDIO
    TITLE "31:cjc023_5811"
    INDEX 01 06:49:23
  TRACK 305 AUDIO
    TITLE "0:"
    INDEX 01 06:51:49
  TRACK 306 AUDIO
    TITLE "28:cjc023_5812"
    INDEX 01 06:52:51
  TRACK 307 AUDIO
    TITLE "0:"
    INDEX 01 06:54:05
  TRACK 308 AUDIO
    TITLE "29:cjc023_5813"
    INDEX 01 06:54:54
  TRACK 309 AUDIO
    TITLE "0:"
    INDEX 01 06:56:47
  TRACK 310 AUDIO
    TITLE "30:cjc023_5814"
    INDEX 01 06:56:70
  TRACK 311 AUDIO
    TITLE "0:"
    INDEX 01 06:59:02
  TRACK 312 AUDIO
    TITLE "31:cjc023_5815"
    INDEX 01 06:59:25
  TRACK 313 AUDIO
    TITLE "0:"
    INDEX 01 07:01:32
  TRACK 314 AUDIO
    TITLE "28:cjc023_5816"
    INDEX 01 07:02:28
  TRACK 315 AUDIO
    TITLE "0:"
    INDEX 01 07:03:35
  TRACK 316 AUDIO
    TITLE "29:cjc023_5817"
    INDEX 01 07:04:09
  TRACK 317 AUDIO
    TITLE "0:"
    INDEX 01 07:06:37
  TRACK 318 AUDIO
    TITLE "30:cjc023_5818"
    INDEX 01 07:06:61
  TRACK 319 AUDIO
    TITLE "0:"
    INDEX 01 07:09:24
  TRACK 320 AUDIO
    TITLE "31:cjc023_5819"
    INDEX 01 07:09:43
  TRACK 321 AUDIO
    TITLE "0:"
    INDEX 01 07:12:04
  TRACK 322 AUDIO
    TITLE "28:cjc023_5820"
    INDEX 01 07:13:00
  TRACK 323 AUDIO
    TITLE "0:"
    INDEX 01 07:14:13
  TRACK 324 AUDIO
    TITLE "29:cjc023_5821"
    INDEX 01 07:14:60
  TRACK 325 AUDIO
    TITLE "0:"
    INDEX 01 07:16:36
  TRACK 326 AUDIO
    TITLE "30:cjc023_5822"
    INDEX 01 07:16:57
  TRACK 327 AUDIO
    TITLE "0:"
    INDEX 01 07:19:28
  TRACK 328 AUDIO
    TITLE "31:cjc023_5823"
    INDEX 01 07:19:53
  TRACK 329 AUDIO
    TITLE "0:"
    INDEX 01 07:22:22
  TRACK 330 AUDIO
    TITLE "28:cjc023_5824"
    INDEX 01 07:23:22
  TRACK 331 AUDIO
    TITLE "0:"
    INDEX 01 07:24:29
  TRACK 332 AUDIO
    TITLE "29:cjc023_5825"
    INDEX 01 07:25:01
  TRACK 333 AUDIO
    TITLE "0:"
    INDEX 01 07:26:65
  TRACK 334 AUDIO
    TITLE "30:cjc023_5826"
    INDEX 01 07:27:12
  TRACK 335 AUDIO
    TITLE "0:"
    INDEX 01 07:29:07
  TRACK 336 AUDIO
    TITLE "31:cjc023_5827"
    INDEX 01 07:29:32
  TRACK 337 AUDIO
    TITLE "0:"
    INDEX 01 07:31:25
  TRACK 338 AUDIO
    TITLE "28:cjc023_5828"
    INDEX 01 07:32:29
  TRACK 339 AUDIO
    TITLE "0:"
    INDEX 01 07:33:44
  TRACK 340 AUDIO
    TITLE "29:cjc023_5829"
    INDEX 01 07:34:20
  TRACK 341 AUDIO
    TITLE "0:"
    INDEX 01 07:37:73
  TRACK 342 AUDIO
    TITLE "30:cjc023_5830"
    INDEX 01 07:38:18
  TRACK 343 AUDIO
    TITLE "0:"
    INDEX 01 07:41:30
  TRACK 344 AUDIO
    TITLE "31:cjc023_5831"
    INDEX 01 07:41:51
  TRACK 345 AUDIO
    TITLE "0:"
    INDEX 01 07:44:61
  TRACK 346 AUDIO
    TITLE "28:cjc023_5832"
    INDEX 01 07:45:59
  TRACK 347 AUDIO
    TITLE "0:"
    INDEX 01 07:46:68
  TRACK 348 AUDIO
    TITLE "29:cjc023_5833"
    INDEX 01 07:47:42
  TRACK 349 AUDIO
    TITLE "0:"
    INDEX 01 07:49:58
  TRACK 350 AUDIO
    TITLE "30:cjc023_5834"
    INDEX 01 07:50:07
  TRACK 351 AUDIO
    TITLE "0:"
    INDEX 01 07:52:25
  TRACK 352 AUDIO
    TITLE "31:cjc023_5835"
    INDEX 01 07:52:51
  TRACK 353 AUDIO
    TITLE "0:"
    INDEX 01 07:54:71
  TRACK 354 AUDIO
    TITLE "28:cjc023_5836"
    INDEX 01 07:55:69
  TRACK 355 AUDIO
    TITLE "0:"
    INDEX 01 07:57:11
  TRACK 356 AUDIO
    TITLE "29:cjc023_5837"
    INDEX 01 07:57:56
  TRACK 357 AUDIO
    TITLE "0:"
    INDEX 01 08:00:45
  TRACK 358 AUDIO
    TITLE "30:cjc023_5838"
    INDEX 01 08:00:68
  TRACK 359 AUDIO
    TITLE "0:"
    INDEX 01 08:03:35
  TRACK 360 AUDIO
    TITLE "31:cjc023_5839"
    INDEX 01 08:03:59
  TRACK 361 AUDIO
    TITLE "0:"
    INDEX 01 08:06:26
  TRACK 362 AUDIO
    TITLE "28:cjc023_5840"
    INDEX 01 08:07:23
  TRACK 363 AUDIO
    TITLE "0:"
    INDEX 01 08:08:46
  TRACK 364 AUDIO
    TITLE "29:cjc023_5841"
    INDEX 01 08:09:18
  TRACK 365 AUDIO
    TITLE "0:"
    INDEX 01 08:10:59
  TRACK 366 AUDIO
    TITLE "30:cjc023_5842"
    INDEX 01 08:11:05
  TRACK 367 AUDIO
    TITLE "0:"
    INDEX 01 08:12:65
  TRACK 368 AUDIO
    TITLE "31:cjc023_5843"
    INDEX 01 08:13:10
  TRACK 369 AUDIO
    TITLE "0:"
    INDEX 01 08:14:70
  TRACK 370 AUDIO
    TITLE "28:cjc023_5844"
    INDEX 01 08:15:66
  TRACK 371 AUDIO
    TITLE "0:"
    INDEX 01 08:17:04
  TRACK 372 AUDIO
    TITLE "29:cjc023_5845"
    INDEX 01 08:17:51
  TRACK 373 AUDIO
    TITLE "0:"
    INDEX 01 08:21:62
  TRACK 374 AUDIO
    TITLE "30:cjc023_5846"
    INDEX 01 08:22:07
  TRACK 375 AUDIO
    TITLE "0:"
    INDEX 01 08:25:56
  TRACK 376 AUDIO
    TITLE "31:cjc023_5847"
    INDEX 01 08:26:01
  TRACK 377 AUDIO
    TITLE "0:"
    INDEX 01 08:29:46
  TRACK 378 AUDIO
    TITLE "28:cjc023_5848"
    INDEX 01 08:30:42
  TRACK 379 AUDIO
    TITLE "0:"
    INDEX 01 08:32:00
  TRACK 380 AUDIO
    TITLE "29:cjc023_5849"
    INDEX 01 08:32:45
  TRACK 381 AUDIO
    TITLE "0:"
    INDEX 01 08:36:23
  TRACK 382 AUDIO
    TITLE "30:cjc023_5850"
    INDEX 01 08:36:46
  TRACK 383 AUDIO
    TITLE "0:"
    INDEX 01 08:39:41
  TRACK 384 AUDIO
    TITLE "31:cjc023_5851"
    INDEX 01 08:39:64
  TRACK 385 AUDIO
    TITLE "0:"
    INDEX 01 08:42:59
  TRACK 386 AUDIO
    TITLE "28:cjc023_5852"
    INDEX 01 08:43:56
  TRACK 387 AUDIO
    TITLE "0:"
    INDEX 01 08:45:02
  TRACK 388 AUDIO
    TITLE "29:cjc023_5853"
    INDEX 01 08:45:47
  TRACK 389 AUDIO
    TITLE "0:"
    INDEX 01 08:47:38
  TRACK 390 AUDIO
    TITLE "30:cjc023_5854"
    INDEX 01 08:47:62
  TRACK 391 AUDIO
    TITLE "0:"
    INDEX 01 08:50:01
  TRACK 392 AUDIO
    TITLE "31:cjc023_5855"
    INDEX 01 08:50:27
  TRACK 393 AUDIO
    TITLE "0:"
    INDEX 01 08:52:43
  TRACK 394 AUDIO
    TITLE "28:cjc023_5856"
    INDEX 01 08:53:41
  TRACK 395 AUDIO
    TITLE "0:"
    INDEX 01 08:54:52
  TRACK 396 AUDIO
    TITLE "29:cjc023_5857"
    INDEX 01 08:55:26
  TRACK 397 AUDIO
    TITLE "0:"
    INDEX 01 08:59:02
  TRACK 398 AUDIO
    TITLE "30:cjc023_5858"
    INDEX 01 08:59:26
  TRACK 399 AUDIO
    TITLE "0:"
    INDEX 01 09:02:28
  TRACK 400 AUDIO
    TITLE "31:cjc023_5859"
    INDEX 01 09:02:59
  TRACK 401 AUDIO
    TITLE "0:"
    INDEX 01 09:05:66
  TRACK 402 AUDIO
    TITLE "28:cjc023_5860"
    INDEX 01 09:06:73
  TRACK 403 AUDIO
    TITLE "0:"
    INDEX 01 09:08:13
  TRACK 404 AUDIO
    TITLE "29:cjc023_5861"
    INDEX 01 09:08:64
  TRACK 405 AUDIO
    TITLE "0:"
    INDEX 01 09:11:05
  TRACK 406 AUDIO
    TITLE "30:cjc023_5862"
    INDEX 01 09:11:29
  TRACK 407 AUDIO
    TITLE "0:"
    INDEX 01 09:13:36
  TRACK 408 AUDIO
    TITLE "31:cjc023_5863"
    INDEX 01 09:13:55
  TRACK 409 AUDIO
    TITLE "0:"
    INDEX 01 09:15:62
  TRACK 410 AUDIO
    TITLE "28:cjc023_5864"
    INDEX 01 09:16:58
  TRACK 411 AUDIO
    TITLE "0:"
    INDEX 01 09:18:00
  TRACK 412 AUDIO
    TITLE "29:cjc023_5865"
    INDEX 01 09:18:49
  TRACK 413 AUDIO
    TITLE "0:"
    INDEX 01 09:20:73
  TRACK 414 AUDIO
    TITLE "30:cjc023_5866"
    INDEX 01 09:21:23
  TRACK 415 AUDIO
    TITLE "0:"
    INDEX 01 09:23:40
  TRACK 416 AUDIO
    TITLE "31:cjc023_5867"
    INDEX 01 09:23:63
  TRACK 417 AUDIO
    TITLE "0:"
    INDEX 01 09:26:05
  TRACK 418 AUDIO
    TITLE "28:cjc023_5868"
    INDEX 01 09:27:03
  TRACK 419 AUDIO
    TITLE "0:"
    INDEX 01 09:28:18
  TRACK 420 AUDIO
    TITLE "29:cjc023_5869"
    INDEX 01 09:28:63
  TRACK 421 AUDIO
    TITLE "0:"
    INDEX 01 09:33:19
  TRACK 422 AUDIO
    TITLE "30:cjc023_5870"
    INDEX 01 09:33:46
  TRACK 423 AUDIO
    TITLE "0:"
    INDEX 01 09:36:68
  TRACK 424 AUDIO
    TITLE "31:cjc023_5871"
    INDEX 01 09:37:13
  TRACK 425 AUDIO
    TITLE "0:"
    INDEX 01 09:40:35
  TRACK 426 AUDIO
    TITLE "28:cjc023_5872"
    INDEX 01 09:41:30
  TRACK 427 AUDIO
    TITLE "0:"
    INDEX 01 09:42:43
  TRACK 428 AUDIO
    TITLE "29:cjc023_5873"
    INDEX 01 09:43:15
  TRACK 429 AUDIO
    TITLE "0:"
    INDEX 01 09:45:61
  TRACK 430 AUDIO
    TITLE "30:cjc023_5874"
    INDEX 01 09:46:16
  TRACK 431 AUDIO
    TITLE "0:"
    INDEX 01 09:48:61
  TRACK 432 AUDIO
    TITLE "31:cjc023_5875"
    INDEX 01 09:49:08
  TRACK 433 AUDIO
    TITLE "0:"
    INDEX 01 09:51:52
  TRACK 434 AUDIO
    TITLE "28:cjc023_5876"
    INDEX 01 09:52:49
  TRACK 435 AUDIO
    TITLE "0:"
    INDEX 01 09:53:61
  TRACK 436 AUDIO
    TITLE "29:cjc023_5877"
    INDEX 01 09:54:31
  TRACK 437 AUDIO
    TITLE "0:"
    INDEX 01 09:56:22
  TRACK 438 AUDIO
    TITLE "30:cjc023_5878"
    INDEX 01 09:56:45
  TRACK 439 AUDIO
    TITLE "0:"
    INDEX 01 09:58:68
  TRACK 440 AUDIO
    TITLE "31:cjc023_5879"
    INDEX 01 09:59:20
  TRACK 441 AUDIO
    TITLE "0:"
    INDEX 01 10:01:41
  TRACK 442 AUDIO
    TITLE "28:cjc023_5880"
    INDEX 01 10:02:42
  TRACK 443 AUDIO
    TITLE "0:"
    INDEX 01 10:03:61
  TRACK 444 AUDIO
    TITLE "29:cjc023_5881"
    INDEX 01 10:04:35
  TRACK 445 AUDIO
    TITLE "0:"
    INDEX 01 10:05:74
  TRACK 446 AUDIO
    TITLE "30:cjc023_5882"
    INDEX 01 10:06:28
  TRACK 447 AUDIO
    TITLE "0:"
    INDEX 01 10:08:33
  TRACK 448 AUDIO
    TITLE "31:cjc023_5883"
    INDEX 01 10:08:52
  TRACK 449 AUDIO
    TITLE "0:"
    INDEX 01 10:10:55
  TRACK 450 AUDIO
    TITLE "28:cjc023_5884"
    INDEX 01 10:11:53
  TRACK 451 AUDIO
    TITLE "0:"
    INDEX 01 10:12:64
  TRACK 452 AUDIO
    TITLE "29:cjc023_5885"
    INDEX 01 10:13:38
  TRACK 453 AUDIO
    TITLE "0:"
    INDEX 01 10:18:19
  TRACK 454 AUDIO
    TITLE "30:cjc023_5886"
    INDEX 01 10:18:47
  TRACK 455 AUDIO
    TITLE "0:"
    INDEX 01 10:22:07
  TRACK 456 AUDIO
    TITLE "31:cjc023_5887"
    INDEX 01 10:22:31
  TRACK 457 AUDIO
    TITLE "0:"
    INDEX 01 10:25:65
  TRACK 458 AUDIO
    TITLE "28:cjc023_5888"
    INDEX 01 10:26:72
  TRACK 459 AUDIO
    TITLE "0:"
    INDEX 01 10:28:22
  TRACK 460 AUDIO
    TITLE "29:cjc023_5889"
    INDEX 01 10:28:69
  TRACK 461 AUDIO
    TITLE "0:"
    INDEX 01 10:31:28
  TRACK 462 AUDIO
    TITLE "30:cjc023_5890"
    INDEX 01 10:31:57
  TRACK 463 AUDIO
    TITLE "0:"
    INDEX 01 10:34:15
  TRACK 464 AUDIO
    TITLE "31:cjc023_5891"
    INDEX 01 10:34:36
  TRACK 465 AUDIO
    TITLE "0:"
    INDEX 01 10:36:68
  TRACK 466 AUDIO
    TITLE "28:cjc023_5892"
    INDEX 01 10:37:66
  TRACK 467 AUDIO
    TITLE "0:"
    INDEX 01 10:39:02
  TRACK 468 AUDIO
    TITLE "29:cjc023_5893"
    INDEX 01 10:39:53
  TRACK 469 AUDIO
    TITLE "0:"
    INDEX 01 10:41:50
  TRACK 470 AUDIO
    TITLE "30:cjc023_5894"
    INDEX 01 10:41:73
  TRACK 471 AUDIO
    TITLE "0:"
    INDEX 01 10:43:68
  TRACK 472 AUDIO
    TITLE "31:cjc023_5895"
    INDEX 01 10:44:15
  TRACK 473 AUDIO
    TITLE "0:"
    INDEX 01 10:46:10
  TRACK 474 AUDIO
    TITLE "28:cjc023_5896"
    INDEX 01 10:47:07
  TRACK 475 AUDIO
    TITLE "0:"
    INDEX 01 10:48:15
  TRACK 476 AUDIO
    TITLE "29:cjc023_5897"
    INDEX 01 10:48:60
  TRACK 477 AUDIO
    TITLE "0:"
    INDEX 01 10:52:73
  TRACK 478 AUDIO
    TITLE "30:cjc023_5898"
    INDEX 01 10:53:26
  TRACK 479 AUDIO
    TITLE "0:"
    INDEX 01 10:56:02
  TRACK 480 AUDIO
    TITLE "31:cjc023_5899"
    INDEX 01 10:56:22
  TRACK 481 AUDIO
    TITLE "0:"
    INDEX 01 10:59:01
  TRACK 482 AUDIO
    TITLE "28:cjc023_5900"
    INDEX 01 10:59:69
  TRACK 483 AUDIO
    TITLE "0:"
    INDEX 01 11:01:31
  TRACK 484 AUDIO
    TITLE "29:cjc023_5901"
    INDEX 01 11:02:05
  TRACK 485 AUDIO
    TITLE "0:"
    INDEX 01 11:04:12
  TRACK 486 AUDIO
    TITLE "30:cjc023_5902"
    INDEX 01 11:04:37
  TRACK 487 AUDIO
    TITLE "0:"
    INDEX 01 11:06:48
  TRACK 488 AUDIO
    TITLE "31:cjc023_5903"
    INDEX 01 11:06:67
  TRACK 489 AUDIO
    TITLE "0:"
    INDEX 01 11:09:01
  TRACK 490 AUDIO
    TITLE "28:cjc023_5904"
    INDEX 01 11:09:74
  TRACK 491 AUDIO
    TITLE "0:"
    INDEX 01 11:11:16
  TRACK 492 AUDIO
    TITLE "29:cjc023_5905"
    INDEX 01 11:11:63
  TRACK 493 AUDIO
    TITLE "0:"
    INDEX 01 11:14:08
  TRACK 494 AUDIO
    TITLE "30:cjc023_5906"
    INDEX 01 11:14:30
  TRACK 495 AUDIO
    TITLE "0:"
    INDEX 01 11:16:52
  TRACK 496 AUDIO
    TITLE "31:cjc023_5907"
    INDEX 01 11:17:01
  TRACK 497 AUDIO
    TITLE "0:"
    INDEX 01 11:19:23
  TRACK 498 AUDIO
    TITLE "28:cjc023_5908"
    INDEX 01 11:20:21
  TRACK 499 AUDIO
    TITLE "0:"
    INDEX 01 11:21:26
  TRACK 500 AUDIO
    TITLE "29:cjc023_5909"
    INDEX 01 11:22:00
  TRACK 501 AUDIO
    TITLE "0:"
    INDEX 01 11:24:22
  TRACK 502 AUDIO
    TITLE "30:cjc023_5910"
    INDEX 01 11:24:50
  TRACK 503 AUDIO
    TITLE "0:"
    INDEX 01 11:26:45
  TRACK 504 AUDIO
    TITLE "31:cjc023_5911"
    INDEX 01 11:26:68
  TRACK 505 AUDIO
    TITLE "0:"
    INDEX 01 11:28:61
  TRACK 506 AUDIO
    TITLE "28:cjc023_5912"
    INDEX 01 11:29:61
  TRACK 507 AUDIO
    TITLE "0:"
    INDEX 01 11:31:01
  TRACK 508 AUDIO
    TITLE "29:cjc023_5913"
    INDEX 01 11:31:52
  TRACK 509 AUDIO
    TITLE "0:"
    INDEX 01 11:35:10
  TRACK 510 AUDIO
    TITLE "30:cjc023_5914"
    INDEX 01 11:35:36
  TRACK 511 AUDIO
    TITLE "0:"
    INDEX 01 11:38:22
  TRACK 512 AUDIO
    TITLE "31:cjc023_5915"
    INDEX 01 11:38:50
  TRACK 513 AUDIO
    TITLE "0:"
    INDEX 01 11:41:40
  TRACK 514 AUDIO
    TITLE "28:cjc023_5916"
    INDEX 01 11:42:40
  TRACK 515 AUDIO
    TITLE "0:"
    INDEX 01 11:43:59
  TRACK 516 AUDIO
    TITLE "29:cjc023_5917"
    INDEX 01 11:44:31
  TRACK 517 AUDIO
    TITLE "0:"
    INDEX 01 11:46:08
  TRACK 518 AUDIO
    TITLE "30:cjc023_5918"
    INDEX 01 11:46:30
  TRACK 519 AUDIO
    TITLE "0:"
    INDEX 01 11:47:70
  TRACK 520 AUDIO
    TITLE "31:cjc023_5919"
    INDEX 01 11:48:19
  TRACK 521 AUDIO
    TITLE "0:"
    INDEX 01 11:49:59
  TRACK 522 AUDIO
    TITLE "28:cjc023_5920"
    INDEX 01 11:50:57
  TRACK 523 AUDIO
    TITLE "0:"
    INDEX 01 11:51:68
  TRACK 524 AUDIO
    TITLE "29:cjc023_5921"
    INDEX 01 11:52:40
  TRACK 525 AUDIO
    TITLE "0:"
    INDEX 01 11:55:52
  TRACK 526 AUDIO
    TITLE "30:cjc023_5922"
    INDEX 01 11:56:05
  TRACK 527 AUDIO
    TITLE "0:"
    INDEX 01 11:58:53
  TRACK 528 AUDIO
    TITLE "31:cjc023_5923"
    INDEX 01 11:59:01
  TRACK 529 AUDIO
    TITLE "0:"
    INDEX 01 12:01:49
  TRACK 530 AUDIO
    TITLE "28:cjc023_5924"
    INDEX 01 12:02:46
  TRACK 531 AUDIO
    TITLE "0:"
    INDEX 01 12:04:02
  TRACK 532 AUDIO
    TITLE "29:cjc023_5925"
    INDEX 01 12:04:47
  TRACK 533 AUDIO
    TITLE "0:"
    INDEX 01 12:07:36
  TRACK 534 AUDIO
    TITLE "30:cjc023_5926"
    INDEX 01 12:07:63
  TRACK 535 AUDIO
    TITLE "0:"
    INDEX 01 12:10:07
  TRACK 536 AUDIO
    TITLE "31:cjc023_5927"
    INDEX 01 12:10:30
  TRACK 537 AUDIO
    TITLE "0:"
    INDEX 01 12:12:49
  TRACK 538 AUDIO
    TITLE "28:cjc023_5928"
    INDEX 01 12:13:48
  TRACK 539 AUDIO
    TITLE "0:"
    INDEX 01 12:14:61
  TRACK 540 AUDIO
    TITLE "29:cjc023_5929"
    INDEX 01 12:15:33
  TRACK 541 AUDIO
    TITLE "0:"
    INDEX 01 12:18:61
  TRACK 542 AUDIO
    TITLE "30:cjc023_5930"
    INDEX 01 12:19:08
  TRACK 543 AUDIO
    TITLE "0:"
    INDEX 01 12:21:67
  TRACK 544 AUDIO
    TITLE "31:cjc023_5931"
    INDEX 01 12:22:12
  TRACK 545 AUDIO
    TITLE "0:"
    INDEX 01 12:24:73
  TRACK 546 AUDIO
    TITLE "28:cjc023_5932"
    INDEX 01 12:25:67
  TRACK 547 AUDIO
    TITLE "0:"
    INDEX 01 12:27:25
  TRACK 548 AUDIO
    TITLE "29:cjc023_5933"
    INDEX 01 12:27:72
  TRACK 549 AUDIO
    TITLE "0:"
    INDEX 01 12:30:13
  TRACK 550 AUDIO
    TITLE "30:cjc023_5934"
    INDEX 01 12:30:39
  TRACK 551 AUDIO
    TITLE "0:"
    INDEX 01 12:32:73
  TRACK 552 AUDIO
    TITLE "31:cjc023_5935"
    INDEX 01 12:33:18
  TRACK 553 AUDIO
    TITLE "0:"
    INDEX 01 12:35:54
  TRACK 554 AUDIO
    TITLE "28:cjc023_5936"
    INDEX 01 12:36:47
  TRACK 555 AUDIO
    TITLE "0:"
    INDEX 01 12:38:01
  TRACK 556 AUDIO
    TITLE "29:cjc023_5937"
    INDEX 01 12:38:48
  TRACK 557 AUDIO
    TITLE "0:"
    INDEX 01 12:40:63
  TRACK 558 AUDIO
    TITLE "30:cjc023_5938"
    INDEX 01 12:41:17
  TRACK 559 AUDIO
    TITLE "0:"
    INDEX 01 12:43:73
  TRACK 560 AUDIO
    TITLE "31:cjc023_5939"
    INDEX 01 12:44:19
  TRACK 561 AUDIO
    TITLE "0:"
    INDEX 01 12:46:73
  TRACK 562 AUDIO
    TITLE "28:cjc023_5940"
    INDEX 01 12:47:73
  TRACK 563 AUDIO
    TITLE "0:"
    INDEX 01 12:49:05
  TRACK 564 AUDIO
    TITLE "29:cjc023_5941"
    INDEX 01 12:49:52
  TRACK 565 AUDIO
    TITLE "0:"
    INDEX 01 12:51:35
  TRACK 566 AUDIO
    TITLE "30:cjc023_5942"
    INDEX 01 12:51:59
  TRACK 567 AUDIO
    TITLE "0:"
    INDEX 01 12:53:61
  TRACK 568 AUDIO
    TITLE "31:cjc023_5943"
    INDEX 01 12:54:10
  TRACK 569 AUDIO
    TITLE "0:"
    INDEX 01 12:56:17
  TRACK 570 AUDIO
    TITLE "28:cjc023_5944"
    INDEX 01 12:57:10
  TRACK 571 AUDIO
    TITLE "0:"
    INDEX 01 12:58:19
  TRACK 572 AUDIO
    TITLE "29:cjc023_5945"
    INDEX 01 12:58:66
  TRACK 573 AUDIO
    TITLE "0:"
    INDEX 01 13:01:49
  TRACK 574 AUDIO
    TITLE "30:cjc023_5946"
    INDEX 01 13:01:71
  TRACK 575 AUDIO
    TITLE "0:"
    INDEX 01 13:04:30
  TRACK 576 AUDIO
    TITLE "31:cjc023_5947"
    INDEX 01 13:04:49
  TRACK 577 AUDIO
    TITLE "0:"
    INDEX 01 13:07:11
  TRACK 578 AUDIO
    TITLE "28:cjc023_5948"
    INDEX 01 13:08:06
  TRACK 579 AUDIO
    TITLE "0:"
    INDEX 01 13:09:17
  TRACK 580 AUDIO
    TITLE "29:cjc023_5949"
    INDEX 01 13:09:62
  TRACK 581 AUDIO
    TITLE "0:"
    INDEX 01 13:12:06
  TRACK 582 AUDIO
    TITLE "30:cjc023_5950"
    INDEX 01 13:12:27
  TRACK 583 AUDIO
    TITLE "0:"
    INDEX 01 13:13:72
  TRACK 584 AUDIO
    TITLE "31:cjc023_5951"
    INDEX 01 13:14:18
  TRACK 585 AUDIO
    TITLE "0:"
    INDEX 01 13:15:61
  TRACK 586 AUDIO
    TITLE "28:cjc023_5952"
    INDEX 01 13:16:57
  TRACK 587 AUDIO
    TITLE "0:"
    INDEX 01 13:17:68
  TRACK 588 AUDIO
    TITLE "29:cjc023_5953"
    INDEX 01 13:18:40
  TRACK 589 AUDIO
    TITLE "0:"
    INDEX 01 13:21:05
  TRACK 590 AUDIO
    TITLE "30:cjc023_5954"
    INDEX 01 13:21:28
  TRACK 591 AUDIO
    TITLE "0:"
    INDEX 01 13:23:63
  TRACK 592 AUDIO
    TITLE "31:cjc023_5955"
    INDEX 01 13:24:11
  TRACK 593 AUDIO
    TITLE "0:"
    INDEX 01 13:26:43
  TRACK 594 AUDIO
    TITLE "28:cjc023_5956"
    INDEX 01 13:27:41
  TRACK 595 AUDIO
    TITLE "0:"
    INDEX 01 13:28:60
  TRACK 596 AUDIO
    TITLE "29:cjc023_5957"
    INDEX 01 13:29:36
  TRACK 597 AUDIO
    TITLE "0:"
    INDEX 01 13:33:35
  TRACK 598 AUDIO
    TITLE "30:cjc023_5958"
    INDEX 01 13:33:71
  TRACK 599 AUDIO
    TITLE "0:"
    INDEX 01 13:36:59
  TRACK 600 AUDIO
    TITLE "31:cjc023_5959"
    INDEX 01 13:37:10
  TRACK 601 AUDIO
    TITLE "0:"
    INDEX 01 13:39:73
  TRACK 602 AUDIO
    TITLE "28:cjc023_5960"
    INDEX 01 13:40:67
  TRACK 603 AUDIO
    TITLE "0:"
    INDEX 01 13:42:05
  TRACK 604 AUDIO
    TITLE "29:cjc023_5961"
    INDEX 01 13:42:50
  TRACK 605 AUDIO
    TITLE "0:"
    INDEX 01 13:44:69
  TRACK 606 AUDIO
    TITLE "30:cjc023_5962"
    INDEX 01 13:45:13
  TRACK 607 AUDIO
    TITLE "0:"
    INDEX 01 13:47:18
  TRACK 608 AUDIO
    TITLE "31:cjc023_5963"
    INDEX 01 13:47:39
  TRACK 609 AUDIO
    TITLE "0:"
    INDEX 01 13:49:46
  TRACK 610 AUDIO
    TITLE "28:cjc023_5964"
    INDEX 01 13:50:42
  TRACK 611 AUDIO
    TITLE "0:"
    INDEX 01 13:51:57
  TRACK 612 AUDIO
    TITLE "29:cjc023_5965"
    INDEX 01 13:52:29
  TRACK 613 AUDIO
    TITLE "0:"
    INDEX 01 13:55:74
  TRACK 614 AUDIO
    TITLE "30:cjc023_5966"
    INDEX 01 13:56:23
  TRACK 615 AUDIO
    TITLE "0:"
    INDEX 01 13:59:07
  TRACK 616 AUDIO
    TITLE "31:cjc023_5967"
    INDEX 01 13:59:27
  TRACK 617 AUDIO
    TITLE "0:"
    INDEX 01 14:02:14
  TRACK 618 AUDIO
    TITLE "28:cjc023_5968"
    INDEX 01 14:03:07
  TRACK 619 AUDIO
    TITLE "0:"
    INDEX 01 14:04:16
  TRACK 620 AUDIO
    TITLE "29:cjc023_5969"
    INDEX 01 14:04:63
  TRACK 621 AUDIO
    TITLE "0:"
    INDEX 01 14:07:46
  TRACK 622 AUDIO
    TITLE "30:cjc023_5970"
    INDEX 01 14:07:74
  TRACK 623 AUDIO
    TITLE "0:"
    INDEX 01 14:10:58
  TRACK 624 AUDIO
    TITLE "31:cjc023_5971"
    INDEX 01 14:11:09
  TRACK 625 AUDIO
    TITLE "0:"
    INDEX 01 14:13:68
  TRACK 626 AUDIO
    TITLE "28:cjc023_5972"
    INDEX 01 14:14:70
  TRACK 627 AUDIO
    TITLE "0:"
    INDEX 01 14:16:14
  TRACK 628 AUDIO
    TITLE "29:cjc023_5973"
    INDEX 01 14:16:61
  TRACK 629 AUDIO
    TITLE "0:"
    INDEX 01 14:18:60
  TRACK 630 AUDIO
    TITLE "30:cjc023_5974"
    INDEX 01 14:19:10
  TRACK 631 AUDIO
    TITLE "0:"
    INDEX 01 14:20:68
  TRACK 632 AUDIO
    TITLE "31:cjc023_5975"
    INDEX 01 14:21:13
  TRACK 633 AUDIO
    TITLE "0:"
    INDEX 01 14:22:67
  TRACK 634 AUDIO
    TITLE "28:cjc023_5976"
    INDEX 01 14:23:65
  TRACK 635 AUDIO
    TITLE "0:"
    INDEX 01 14:25:26
  TRACK 636 AUDIO
    TITLE "29:cjc023_5977"
    INDEX 01 14:25:69
  TRACK 637 AUDIO
    TITLE "0:"
    INDEX 01 14:29:42
  TRACK 638 AUDIO
    TITLE "30:cjc023_5978"
    INDEX 01 14:29:63
  TRACK 639 AUDIO
    TITLE "0:"
    INDEX 01 14:33:22
  TRACK 640 AUDIO
    TITLE "31:cjc023_5979"
    INDEX 01 14:33:45
  TRACK 641 AUDIO
    TITLE "0:"
    INDEX 01 14:37:04
  TRACK 642 AUDIO
    TITLE "28:cjc023_5980"
    INDEX 01 14:38:04
  TRACK 643 AUDIO
    TITLE "0:"
    INDEX 01 14:39:13
  TRACK 644 AUDIO
    TITLE "29:cjc023_5981"
    INDEX 01 14:39:58
  TRACK 645 AUDIO
    TITLE "0:"
    INDEX 01 14:41:31
  TRACK 646 AUDIO
    TITLE "30:cjc023_5982"
    INDEX 01 14:41:53
  TRACK 647 AUDIO
    TITLE "0:"
    INDEX 01 14:43:50
  TRACK 648 AUDIO
    TITLE "31:cjc023_5983"
    INDEX 01 14:43:69
  TRACK 649 AUDIO
    TITLE "0:"
    INDEX 01 14:45:64
  TRACK 650 AUDIO
    TITLE "28:cjc023_5984"
    INDEX 01 14:46:62
  TRACK 651 AUDIO
    TITLE "0:"
    INDEX 01 14:47:71
  TRACK 652 AUDIO
    TITLE "29:cjc023_5985"
    INDEX 01 14:48:45
  TRACK 653 AUDIO
    TITLE "0:"
    INDEX 01 14:50:22
  TRACK 654 AUDIO
    TITLE "30:cjc023_5986"
    INDEX 01 14:50:52
  TRACK 655 AUDIO
    TITLE "0:"
    INDEX 01 14:52:57
  TRACK 656 AUDIO
    TITLE "31:cjc023_5987"
    INDEX 01 14:53:03
  TRACK 657 AUDIO
    TITLE "0:"
    INDEX 01 14:55:10
  TRACK 658 AUDIO
    TITLE "28:cjc023_5988"
    INDEX 01 14:56:01
  TRACK 659 AUDIO
    TITLE "0:"
    INDEX 01 14:57:07
  TRACK 660 AUDIO
    TITLE "29:cjc023_5989"
    INDEX 01 14:57:54
  TRACK 661 AUDIO
    TITLE "0:"
    INDEX 01 14:59:35
  TRACK 662 AUDIO
    TITLE "30:cjc023_5990"
    INDEX 01 14:59:61
  TRACK 663 AUDIO
    TITLE "0:"
    INDEX 01 15:01:34
  TRACK 664 AUDIO
    TITLE "31:cjc023_5991"
    INDEX 01 15:01:56
  TRACK 665 AUDIO
    TITLE "0:"
    INDEX 01 15:03:29
  TRACK 666 AUDIO
    TITLE "28:cjc023_5992"
    INDEX 01 15:04:28
  TRACK 667 AUDIO
    TITLE "0:"
    INDEX 01 15:05:55
  TRACK 668 AUDIO
    TITLE "29:cjc023_5993"
    INDEX 01 15:06:29
  TRACK 669 AUDIO
    TITLE "0:"
    INDEX 01 15:08:38
  TRACK 670 AUDIO
    TITLE "30:cjc023_5994"
    INDEX 01 15:08:67
  TRACK 671 AUDIO
    TITLE "0:"
    INDEX 01 15:11:28
  TRACK 672 AUDIO
    TITLE "31:cjc023_5995"
    INDEX 01 15:11:54
  TRACK 673 AUDIO
    TITLE "0:"
    INDEX 01 15:14:13
  TRACK 674 AUDIO
    TITLE "28:cjc023_5996"
    INDEX 01 15:15:13
  TRACK 675 AUDIO
    TITLE "0:"
    INDEX 01 15:16:43
  TRACK 676 AUDIO
    TITLE "29:cjc023_5997"
    INDEX 01 15:17:15
  TRACK 677 AUDIO
    TITLE "0:"
    INDEX 01 15:19:16
  TRACK 678 AUDIO
    TITLE "30:cjc023_5998"
    INDEX 01 15:19:46
  TRACK 679 AUDIO
    TITLE "0:"
    INDEX 01 15:21:52
  TRACK 680 AUDIO
    TITLE "31:cjc023_5999"
    INDEX 01 15:21:72
  TRACK 681 AUDIO
    TITLE "0:"
    INDEX 01 15:24:04
  TRACK 682 AUDIO
    TITLE "28:cjc023_6000"
    INDEX 01 15:25:03
  TRACK 683 AUDIO
    TITLE "0:"
    INDEX 01 15:26:05
  TRACK 684 AUDIO
    TITLE "29:cjc023_6001"
    INDEX 01 15:26:57
  TRACK 685 AUDIO
    TITLE "0:"
    INDEX 01 15:30:28
  TRACK 686 AUDIO
    TITLE "30:cjc023_6002"
    INDEX 01 15:30:55
  TRACK 687 AUDIO
    TITLE "0:"
    INDEX 01 15:33:34
  TRACK 688 AUDIO
    TITLE "31:cjc023_6003"
    INDEX 01 15:33:56
  TRACK 689 AUDIO
    TITLE "0:"
    INDEX 01 15:36:34
  TRACK 690 AUDIO
    TITLE "28:cjc023_6004"
    INDEX 01 15:37:32
  TRACK 691 AUDIO
    TITLE "0:"
    INDEX 01 15:38:37
  TRACK 692 AUDIO
    TITLE "29:cjc023_6005"
    INDEX 01 15:39:11
  TRACK 693 AUDIO
    TITLE "0:"
    INDEX 01 15:41:24
  TRACK 694 AUDIO
    TITLE "30:cjc023_6006"
    INDEX 01 15:41:45
  TRACK 695 AUDIO
    TITLE "0:"
    INDEX 01 15:43:54
  TRACK 696 AUDIO
    TITLE "31:cjc023_6007"
    INDEX 01 15:44:02
  TRACK 697 AUDIO
    TITLE "0:"
    INDEX 01 15:46:11
  TRACK 698 AUDIO
    TITLE "28:cjc023_6008"
    INDEX 01 15:47:07
  TRACK 699 AUDIO
    TITLE "0:"
    INDEX 01 15:48:41
  TRACK 700 AUDIO
    TITLE "29:cjc023_6009"
    INDEX 01 15:49:13
  TRACK 701 AUDIO
    TITLE "0:"
    INDEX 01 15:51:34
  TRACK 702 AUDIO
    TITLE "30:cjc023_6010"
    INDEX 01 15:51:63
  TRACK 703 AUDIO
    TITLE "0:"
    INDEX 01 15:53:70
  TRACK 704 AUDIO
    TITLE "31:cjc023_6011"
    INDEX 01 15:54:18
  TRACK 705 AUDIO
    TITLE "0:"
    INDEX 01 15:56:25
  TRACK 706 AUDIO
    TITLE "28:cjc023_6012"
    INDEX 01 15:57:23
  TRACK 707 AUDIO
    TITLE "0:"
    INDEX 01 15:58:55
  TRACK 708 AUDIO
    TITLE "29:cjc023_6013"
    INDEX 01 15:59:27
  TRACK 709 AUDIO
    TITLE "0:"
    INDEX 01 16:01:34
  TRACK 710 AUDIO
    TITLE "30:cjc023_6014"
    INDEX 01 16:01:52
  TRACK 711 AUDIO
    TITLE "0:"
    INDEX 01 16:03:63
  TRACK 712 AUDIO
    TITLE "31:cjc023_6015"
    INDEX 01 16:04:11
  TRACK 713 AUDIO
    TITLE "0:"
    INDEX 01 16:06:20
  TRACK 714 AUDIO
    TITLE "28:cjc023_6016"
    INDEX 01 16:07:17
  TRACK 715 AUDIO
    TITLE "0:"
    INDEX 01 16:08:50
  TRACK 716 AUDIO
    TITLE "29:cjc023_6017"
    INDEX 01 16:09:22
  TRACK 717 AUDIO
    TITLE "0:"
    INDEX 01 16:13:35
  TRACK 718 AUDIO
    TITLE "30:cjc023_6018"
    INDEX 01 16:13:61
  TRACK 719 AUDIO
    TITLE "0:"
    INDEX 01 16:16:53
  TRACK 720 AUDIO
    TITLE "31:cjc023_6019"
    INDEX 01 16:16:73
  TRACK 721 AUDIO
    TITLE "0:"
    INDEX 01 16:19:65
  TRACK 722 AUDIO
    TITLE "28:cjc023_6020"
    INDEX 01 16:20:65
  TRACK 723 AUDIO
    TITLE "0:"
    INDEX 01 16:22:21
  TRACK 724 AUDIO
    TITLE "29:cjc023_6021"
    INDEX 01 16:22:66
  TRACK 725 AUDIO
    TITLE "0:"
    INDEX 01 16:24:31
  TRACK 726 AUDIO
    TITLE "30:cjc023_6022"
    INDEX 01 16:24:53
  TRACK 727 AUDIO
    TITLE "0:"
    INDEX 01 16:26:46
  TRACK 728 AUDIO
    TITLE "31:cjc023_6023"
    INDEX 01 16:26:64
  TRACK 729 AUDIO
    TITLE "0:"
    INDEX 01 16:28:57
  TRACK 730 AUDIO
    TITLE "28:cjc023_6024"
    INDEX 01 16:29:50
  TRACK 731 AUDIO
    TITLE "0:"
    INDEX 01 16:30:67
  TRACK 732 AUDIO
    TITLE "29:cjc023_6025"
    INDEX 01 16:31:51
  TRACK 733 AUDIO
    TITLE "0:"
    INDEX 01 16:33:52
  TRACK 734 AUDIO
    TITLE "30:cjc023_6026"
    INDEX 01 16:33:73
  TRACK 735 AUDIO
    TITLE "0:"
    INDEX 01 16:35:64
  TRACK 736 AUDIO
    TITLE "31:cjc023_6027"
    INDEX 01 16:36:15
  TRACK 737 AUDIO
    TITLE "0:"
    INDEX 01 16:38:08
  TRACK 738 AUDIO
    TITLE "28:cjc023_6028"
    INDEX 01 16:39:11
  TRACK 739 AUDIO
    TITLE "0:"
    INDEX 01 16:40:23
  TRACK 740 AUDIO
    TITLE "29:cjc023_6029"
    INDEX 01 16:40:68
  TRACK 741 AUDIO
    TITLE "0:"
    INDEX 01 16:42:43
  TRACK 742 AUDIO
    TITLE "30:cjc023_6030"
    INDEX 01 16:42:59
  TRACK 743 AUDIO
    TITLE "0:"
    INDEX 01 16:44:46
  TRACK 744 AUDIO
    TITLE "31:cjc023_6031"
    INDEX 01 16:44:63
  TRACK 745 AUDIO
    TITLE "0:"
    INDEX 01 16:46:53
  TRACK 746 AUDIO
    TITLE "28:cjc023_6032"
    INDEX 01 16:47:48
  TRACK 747 AUDIO
    TITLE "0:"
    INDEX 01 16:49:12
  TRACK 748 AUDIO
    TITLE "29:cjc023_6033"
    INDEX 01 16:49:57
  TRACK 749 AUDIO
    TITLE "0:"
    INDEX 01 16:52:32
  TRACK 750 AUDIO
    TITLE "30:cjc023_6034"
    INDEX 01 16:52:59
  TRACK 751 AUDIO
    TITLE "0:"
    INDEX 01 16:55:55
  TRACK 752 AUDIO
    TITLE "31:cjc023_6035"
    INDEX 01 16:56:06
  TRACK 753 AUDIO
    TITLE "0:"
    INDEX 01 16:59:04
  TRACK 754 AUDIO
    TITLE "28:cjc023_6036"
    INDEX 01 17:00:00
  TRACK 755 AUDIO
    TITLE "0:"
    INDEX 01 17:01:19
  TRACK 756 AUDIO
    TITLE "29:cjc023_6037"
    INDEX 01 17:01:64
  TRACK 757 AUDIO
    TITLE "0:"
    INDEX 01 17:04:23
  TRACK 758 AUDIO
    TITLE "30:cjc023_6038"
    INDEX 01 17:04:50
  TRACK 759 AUDIO
    TITLE "0:"
    INDEX 01 17:07:35
  TRACK 760 AUDIO
    TITLE "31:cjc023_6039"
    INDEX 01 17:07:55
  TRACK 761 AUDIO
    TITLE "0:"
    INDEX 01 17:10:41
  TRACK 762 AUDIO
    TITLE "28:cjc023_6040"
    INDEX 01 17:11:35
  TRACK 763 AUDIO
    TITLE "0:"
    INDEX 01 17:12:66
  TRACK 764 AUDIO
    TITLE "29:cjc023_6041"
    INDEX 01 17:13:38
  TRACK 765 AUDIO
    TITLE "0:"
    INDEX 01 17:15:56
  TRACK 766 AUDIO
    TITLE "30:cjc023_6042"
    INDEX 01 17:16:05
  TRACK 767 AUDIO
    TITLE "0:"
    INDEX 01 17:18:17
  TRACK 768 AUDIO
    TITLE "31:cjc023_6043"
    INDEX 01 17:18:37
  TRACK 769 AUDIO
    TITLE "0:"
    INDEX 01 17:20:49
  TRACK 770 AUDIO
    TITLE "28:cjc023_6044"
    INDEX 01 17:21:45
  TRACK 771 AUDIO
    TITLE "0:"
    INDEX 01 17:22:50
  TRACK 772 AUDIO
    TITLE "29:cjc023_6045"
    INDEX 01 17:23:26
  TRACK 773 AUDIO
    TITLE "0:"
    INDEX 01 17:27:61
  TRACK 774 AUDIO
    TITLE "30:cjc023_6046"
    INDEX 01 17:28:18
  TRACK 775 AUDIO
    TITLE "0:"
    INDEX 01 17:31:34
  TRACK 776 AUDIO
    TITLE "31:cjc023_6047"
    INDEX 01 17:31:69
  TRACK 777 AUDIO
    TITLE "0:"
    INDEX 01 17:35:10
  TRACK 778 AUDIO
    TITLE "28:cjc023_6048"
    INDEX 01 17:36:13
  TRACK 779 AUDIO
    TITLE "0:"
    INDEX 01 17:37:17
  TRACK 780 AUDIO
    TITLE "29:cjc023_6049"
    INDEX 01 17:37:66
  TRACK 781 AUDIO
    TITLE "0:"
    INDEX 01 17:39:31
  TRACK 782 AUDIO
    TITLE "30:cjc023_6050"
    INDEX 01 17:39:62
  TRACK 783 AUDIO
    TITLE "0:"
    INDEX 01 17:41:38
  TRACK 784 AUDIO
    TITLE "31:cjc023_6051"
    INDEX 01 17:41:61
  TRACK 785 AUDIO
    TITLE "0:"
    INDEX 01 17:43:35
  TRACK 786 AUDIO
    TITLE "28:cjc023_6052"
    INDEX 01 17:44:30
  TRACK 787 AUDIO
    TITLE "0:"
    INDEX 01 17:45:59
  TRACK 788 AUDIO
    TITLE "29:cjc023_6053"
    INDEX 01 17:46:33
  TRACK 789 AUDIO
    TITLE "0:"
    INDEX 01 17:49:47
  TRACK 790 AUDIO
    TITLE "30:cjc023_6054"
    INDEX 01 17:50:00
  TRACK 791 AUDIO
    TITLE "0:"
    INDEX 01 17:53:10
  TRACK 792 AUDIO
    TITLE "31:cjc023_6055"
    INDEX 01 17:53:27
  TRACK 793 AUDIO
    TITLE "0:"
    INDEX 01 17:56:37
  TRACK 794 AUDIO
    TITLE "28:cjc023_6056"
    INDEX 01 17:57:33
  TRACK 795 AUDIO
    TITLE "0:"
    INDEX 01 17:58:40
  TRACK 796 AUDIO
    TITLE "29:cjc023_6057"
    INDEX 01 17:59:12
  TRACK 797 AUDIO
    TITLE "0:"
    INDEX 01 18:00:71
  TRACK 798 AUDIO
    TITLE "30:cjc023_6058"
    INDEX 01 18:01:23
  TRACK 799 AUDIO
    TITLE "0:"
    INDEX 01 18:03:04
  TRACK 800 AUDIO
    TITLE "31:cjc023_6059"
    INDEX 01 18:03:28
  TRACK 801 AUDIO
    TITLE "0:"
    INDEX 01 18:05:11
